{
  "title": "Maroon 5 - Sugar (2015.Funk Pop)",
  "uid": 11717077,
  "size": 153615870,
  "categoryP": "video",
  "categoryS": "music_videos",
  "magnet": "?xt=urn:btih:5e29404a3054bd0199ed5aef39a99bc657ce4422&amp;dn=Maroon+5+-+Sugar+%282015.Funk+Pop%29&amp;tr=udp%3A%2F%2Ftracker.openbittorrent.com%3A80&amp;tr=udp%3A%2F%2Fopen.demonii.com%3A1337&amp;tr=udp%3A%2F%2Ftracker.coppersurfer.tk%3A6969&amp;tr=udp%3A%2F%2Fexodus.desync.com%3A6969",
  "seeders": 170,
  "leechers": 4,
  "uploader": "MeRaDil",
  "files": 1,
  "time": 1424626605,
  "description": "MAROON 5 - SUGAR\n\n &lt;a href=&quot;\nhttp://gifyu.com/images/sugar.png&quot; rel=&quot;nofollow&quot; target=&quot;_NEW&quot;&gt;\nhttp://gifyu.com/images/sugar.png&lt;/a&gt;\n &lt;a href=&quot;\nhttp://gifyu.com/images/Maroon5d0880.png&quot; rel=&quot;nofollow&quot; target=&quot;_NEW&quot;&gt;\nhttp://gifyu.com/images/Maroon5d0880.png&lt;/a&gt;\n\nGeneral\nMaroon 5 - Sugar\nFormat                      : MPEG-4\nFormat profile              : Base Media\nCodec ID                    : isom\nFile size                   : 146 MiB\nDuration                    : 5mn 1s\nOverall bit rate            : 4 077 Kbps\nMusicVid name               : Sugar\nAlbum                       : V\nPerformer                   : Maroon 5\nGenre                       : Disco/Funk Pop\nContentType                 : Music Video\nRecorded date               : 2015\nCopyright                   : Maroon 5\nCover                       : Yes\nRating                      : ***\nMake                        : MeRaDil\nArtist url                  : http://www.maroon5.com\nRelease                     : USA . january 14 . 2015\nPart_ID                     : Sugar\n\nVideo\nID                          : 1\nFormat                      : AVC\nFormat/Info                 : Advanced Video Codec\nFormat profile              : &lt;a class=&quot;__cf_email__&quot; href=&quot;/cdn-cgi/l/email-protection&quot; data-cfemail=&quot;2068494748606c140e10&quot;&gt;[email&amp;#160;protected]&lt;/a&gt;&lt;script cf-hash='f9e31' type=&quot;text/javascript&quot;&gt;\n/* &lt;![CDATA[ */!function(){try{var t=&quot;currentScript&quot;in document?document.currentScript:function(){for(var t=document.getElementsByTagName(&quot;script&quot;),e=t.length;e--;)if(t[e].getAttribute(&quot;cf-hash&quot;))return t[e]}();if(t&amp;&amp;t.previousSibling){var e,r,n,i,c=t.previousSibling,a=c.getAttribute(&quot;data-cfemail&quot;);if(a){for(e=&quot;&quot;,r=parseInt(a.substr(0,2),16),n=2;a.length-n;n+=2)i=parseInt(a.substr(n,2),16)^r,e+=String.fromCharCode(i);e=document.createTextNode(e),c.parentNode.replaceChild(e,c)}}}catch(u){}}();/* ]]&gt; */&lt;/script&gt;\nFormat settings, CABAC      : Yes\nFormat settings, ReFrames   : 3 frames\nCodec ID                    : avc1\nCodec ID/Info               : Advanced Video Coding\nDuration                    : 5mn 1s\nBit rate                    : 3 815 Kbps\nWidth                       : 1 920 pixels\nHeight                      : 1 080 pixels\nDisplay aspect ratio        : 16:9\nFrame rate mode             : Variable\nFrame rate                  : 23.976 fps\nMinimum frame rate          : 23.974 fps\nMaximum frame rate          : 23.981 fps\nColor space                 : YUV\nChroma subsampling          : 4:2:0\nBit depth                   : 8 bits\nScan type                   : Progressive\nBits/(Pixel*Frame)          : 0.077\nStream size                 : 137 MiB (94%)\n\nAudio\nID                          : 2\nFormat                      : AAC\nFormat/Info                 : Advanced Audio Codec\nFormat profile              : LC\nCodec ID                    : 40\nDuration                    : 5mn 1s\nBit rate mode               : Constant\nBit rate                    : 256 Kbps\nChannel(s)                  : 2 channels\nChannel positions           : Front: L R\nSampling rate               : 44.1 KHz\nCompression mode            : Lossy\nStream size                 : 9.20 MiB (6%)\n &lt;a href=&quot;\nhttps://thepiratebay.se/user/MeRaDil&quot; rel=&quot;nofollow&quot; target=&quot;_NEW&quot;&gt;\nhttps://thepiratebay.se/user/MeRaDil&lt;/a&gt;\n\nUSA jan.2015 * Maroon 5 * V * Promo * Disco * Funk Pop\n\n:)",
  "parsed": {
    "xt": "urn:btih:5e29404a3054bd0199ed5aef39a99bc657ce4422",
    "dn": "Maroon 5 - Sugar (2015.Funk Pop)",
    "tr": [
      "udp://exodus.desync.com:6969",
      "udp://open.demonii.com:1337",
      "udp://tracker.coppersurfer.tk:6969",
      "udp://tracker.openbittorrent.com:80"
    ],
    "infoHash": "5e29404a3054bd0199ed5aef39a99bc657ce4422",
    "infoHashBuffer": {
      "type": "Buffer",
      "data": [
        94,
        41,
        64,
        74,
        48,
        84,
        189,
        1,
        153,
        237,
        90,
        239,
        57,
        169,
        155,
        198,
        87,
        206,
        68,
        34
      ]
    },
    "name": "Maroon 5 - Sugar (2015.Funk Pop)",
    "announce": [
      "udp://exodus.desync.com:6969",
      "udp://open.demonii.com:1337",
      "udp://tracker.coppersurfer.tk:6969",
      "udp://tracker.openbittorrent.com:80"
    ],
    "urlList": []
  },
  "previous": 50,
  "peers": 87,
  "last_updated": "2016-12-27T01:35:41.960Z"
}